<?xml version="1.0" encoding="UTF-8" standalone="no"?>
<svg
   height="64pt"
   viewBox="0 0 64 64"
   width="64pt"
   version="1.1"
   id="svg59"
   sodipodi:docname="LumiSword.svg"
   inkscape:version="1.1 (c4e8f9ed74, 2021-05-24)"
   xmlns:inkscape="http://www.inkscape.org/namespaces/inkscape"
   xmlns:sodipodi="http://sodipodi.sourceforge.net/DTD/sodipodi-0.dtd"
   xmlns:xlink="http://www.w3.org/1999/xlink"
   xmlns="http://www.w3.org/2000/svg"
   xmlns:svg="http://www.w3.org/2000/svg">
  <defs
     id="defs63">
    <linearGradient
       id="linearGradient5418">
      <stop
         offset="0"
         stop-color="#bdbdbd"
         id="stop5414"
         style="stop-color:#ef5350;stop-opacity:1" />
      <stop
         offset="1"
         stop-color="#e0e0e0"
         id="stop5416"
         style="stop-color:#ffca28;stop-opacity:1" />
    </linearGradient>
    <linearGradient
       id="s"
       gradientUnits="userSpaceOnUse"
       x1="34.39854"
       x2="34.39854"
       xlink:href="#f-3"
       y1="56.067837"
       y2="58.713921"
       gradientTransform="translate(-0.654827,-0.621901)" />
    <linearGradient
       id="f-3">
      <stop
         offset="0"
         stop-opacity=".275"
         id="stop15" />
      <stop
         offset="1"
         stop-opacity="0"
         id="stop17" />
    </linearGradient>
    <radialGradient
       id="t"
       cx="450.909"
       cy="189.57899"
       gradientTransform="matrix(0,-0.15626,-0.28128,0,95.007173,126.5681)"
       gradientUnits="userSpaceOnUse"
       r="21.167"
       xlink:href="#h-6" />
    <linearGradient
       id="h-6">
      <stop
         offset="0"
         stop-opacity=".314"
         id="stop21" />
      <stop
         offset=".222"
         stop-opacity=".275"
         id="stop23-7" />
      <stop
         offset="1"
         stop-opacity="0"
         id="stop25-5" />
    </linearGradient>
    <radialGradient
       id="u"
       cx="450.909"
       cy="189.57899"
       gradientTransform="matrix(0,0.15626,0.28128,0,-11.641827,-15.676901)"
       gradientUnits="userSpaceOnUse"
       r="21.167"
       xlink:href="#h-6" />
    <radialGradient
       id="v"
       cx="450.909"
       cy="189.57899"
       gradientTransform="matrix(0,-0.15626,0.28128,0,-11.641827,126.5681)"
       gradientUnits="userSpaceOnUse"
       r="21.167"
       xlink:href="#h-6" />
    <radialGradient
       id="w"
       cx="450.909"
       cy="189.57899"
       gradientTransform="matrix(0,0.15626,-0.28128,0,95.007173,-15.676901)"
       gradientUnits="userSpaceOnUse"
       r="21.167"
       xlink:href="#h-6" />
    <linearGradient
       inkscape:collect="always"
       xlink:href="#m"
       id="linearGradient1666"
       gradientUnits="userSpaceOnUse"
       x1="228.26559"
       y1="242.20732"
       x2="228.26559"
       y2="-54.12228"
       gradientTransform="matrix(-0.10826,0.0625,0.0625,0.10826,50.771173,12.588099)" />
    <linearGradient
       id="m">
      <stop
         offset="0"
         stop-color="#bdbdbd"
         id="stop32" />
      <stop
         offset="1"
         stop-color="#e0e0e0"
         id="stop34" />
    </linearGradient>
    <linearGradient
       inkscape:collect="always"
       xlink:href="#m"
       id="linearGradient1668"
       gradientUnits="userSpaceOnUse"
       x1="780"
       y1="1295.118"
       x2="860"
       y2="1295.118"
       gradientTransform="matrix(-0.02864812,0.01654,0.01654,0.02864812,37.337477,-10.690136)" />
    <linearGradient
       inkscape:collect="always"
       xlink:href="#d-3"
       id="linearGradient1670"
       gradientUnits="userSpaceOnUse"
       x1="228.26801"
       y1="-64.704002"
       x2="228.26801"
       y2="-149.37"
       gradientTransform="matrix(-0.10826,0.0625,0.0625,0.10826,50.771173,12.588099)" />
    <linearGradient
       id="d-3">
      <stop
         offset="0"
         stop-color="#ef5350"
         id="stop9-5" />
      <stop
         offset="1"
         stop-color="#e57373"
         id="stop11-6" />
    </linearGradient>
    <linearGradient
       inkscape:collect="always"
       xlink:href="#q"
       id="linearGradient1672"
       gradientUnits="userSpaceOnUse"
       x1="228.26801"
       y1="-43.536999"
       x2="228.26801"
       y2="-64.704002"
       gradientTransform="matrix(-0.10826,0.0625,0.0625,0.10826,50.771173,12.588099)" />
    <linearGradient
       id="q"
       gradientUnits="userSpaceOnUse"
       x1="228.26801"
       x2="228.26801"
       y1="-43.536999"
       y2="-64.704002">
      <stop
         offset="0"
         stop-color="#8d6e63"
         id="stop40" />
      <stop
         offset="1"
         stop-color="#a1887f"
         id="stop42" />
    </linearGradient>
    <linearGradient
       inkscape:collect="always"
       xlink:href="#m"
       id="linearGradient1674"
       gradientUnits="userSpaceOnUse"
       x1="228.26801"
       y1="-149.37"
       x2="228.26801"
       y2="-191.70399"
       gradientTransform="matrix(-0.10826,0.0625,0.0625,0.10826,50.771173,12.588099)" />
    <linearGradient
       id="x"
       gradientUnits="userSpaceOnUse"
       x1="34.179413"
       x2="31.75"
       xlink:href="#linearGradient5418"
       y1="24.67691"
       y2="6.9260001"
       gradientTransform="translate(9.390827,33.70194)" />
    <linearGradient
       id="g-1"
       gradientUnits="userSpaceOnUse"
       x1="23.814541"
       x2="23.814541"
       xlink:href="#f-3"
       y1="56.067837"
       y2="58.713921"
       gradientTransform="translate(36.022898,-3.894587)" />
    <radialGradient
       id="i-9"
       cx="450.909"
       cy="189.57899"
       gradientTransform="matrix(0,-0.15626,-0.28128,0,121.0999,123.29541)"
       gradientUnits="userSpaceOnUse"
       r="21.167"
       xlink:href="#h-6" />
    <radialGradient
       id="j"
       cx="450.909"
       cy="189.57899"
       gradientTransform="matrix(0,0.15626,0.28128,0,14.451898,-18.949587)"
       gradientUnits="userSpaceOnUse"
       r="21.167"
       xlink:href="#h-6" />
    <radialGradient
       id="k"
       cx="450.909"
       cy="189.57899"
       gradientTransform="matrix(0,-0.15626,0.28128,0,14.451898,123.29541)"
       gradientUnits="userSpaceOnUse"
       r="21.167"
       xlink:href="#h-6" />
    <radialGradient
       id="l"
       cx="450.909"
       cy="189.57899"
       gradientTransform="matrix(0,0.15626,-0.28128,0,121.0999,-18.949587)"
       gradientUnits="userSpaceOnUse"
       r="21.167"
       xlink:href="#h-6" />
    <linearGradient
       id="h-2"
       gradientTransform="matrix(-0.00856,0.03195,-0.03195,-0.00856,97.643569,-9.18325)"
       gradientUnits="userSpaceOnUse"
       x1="844.92603"
       x2="1719.0226"
       y1="967.06403"
       y2="739.5603">
      <stop
         offset="0"
         stop-color="#ffa726"
         id="stop23-6" />
      <stop
         offset="1"
         stop-color="#ef5350"
         id="stop25-1" />
    </linearGradient>
    <linearGradient
       inkscape:collect="always"
       xlink:href="#h-2"
       id="linearGradient1317"
       gradientUnits="userSpaceOnUse"
       gradientTransform="translate(9.4196081,33.702553)"
       x1="24.381639"
       y1="43.448254"
       x2="32.262089"
       y2="56.295139" />
  </defs>
  <sodipodi:namedview
     id="namedview61"
     pagecolor="#505050"
     bordercolor="#ffffff"
     borderopacity="1"
     inkscape:pageshadow="0"
     inkscape:pageopacity="0"
     inkscape:pagecheckerboard="1"
     inkscape:document-units="pt"
     showgrid="false"
     showguides="false"
     inkscape:zoom="1.3249068"
     inkscape:cx="43.021893"
     inkscape:cy="43.021893"
     inkscape:window-width="1920"
     inkscape:window-height="1009"
     inkscape:window-x="0"
     inkscape:window-y="34"
     inkscape:window-maximized="1"
     inkscape:current-layer="g1171" />
  <linearGradient
     id="a"
     gradientUnits="userSpaceOnUse"
     x1="31.75254"
     x2="31.75254"
     y1="56.067835"
     y2="58.71392167">
    <stop
       offset="0"
       stop-opacity=".275"
       id="stop2" />
    <stop
       offset="1"
       stop-opacity="0"
       id="stop4" />
  </linearGradient>
  <linearGradient
     id="b">
    <stop
       offset="0"
       stop-opacity=".314"
       id="stop7" />
    <stop
       offset=".222"
       stop-opacity=".275"
       id="stop9" />
    <stop
       offset="1"
       stop-opacity="0"
       id="stop11" />
  </linearGradient>
  <radialGradient
     id="c"
     cx="450.909"
     cy="189.579"
     gradientTransform="matrix(0 -.15626 -.28128 0 100.292 127.19)"
     gradientUnits="userSpaceOnUse"
     r="21.167"
     xlink:href="#b" />
  <radialGradient
     id="d"
     cx="450.909"
     cy="189.579"
     gradientTransform="matrix(0 .15626 .28128 0 -36.786 -15.055)"
     gradientUnits="userSpaceOnUse"
     r="21.167"
     xlink:href="#b" />
  <radialGradient
     id="e"
     cx="450.909"
     cy="189.579"
     gradientTransform="matrix(0 -.15626 .28128 0 -36.786 127.19)"
     gradientUnits="userSpaceOnUse"
     r="21.167"
     xlink:href="#b" />
  <radialGradient
     id="f"
     cx="450.909"
     cy="189.579"
     gradientTransform="matrix(0 .15626 -.28128 0 100.292 -15.055)"
     gradientUnits="userSpaceOnUse"
     r="21.167"
     xlink:href="#b" />
  <linearGradient
     id="g"
     gradientTransform="matrix(.03308 0 0 -.03308 0 104.197)"
     gradientUnits="userSpaceOnUse"
     x1="840"
     x2="840"
     y1="1455.118"
     y2="1695.118">
    <stop
       offset="0"
       stop-color="#616161"
       id="stop18" />
    <stop
       offset="1"
       stop-color="#424242"
       id="stop20" />
  </linearGradient>
  <linearGradient
     id="h"
     gradientTransform="matrix(.1507 0 0 .43482 -11.708 67.283)"
     gradientUnits="userSpaceOnUse"
     x1="306.917"
     x2="305.955"
     y1="-25.792"
     y2="-141.415">
    <stop
       offset="0"
       stop-color="#5c6bc0"
       id="stop23" />
    <stop
       offset="1"
       stop-color="#7986cb"
       id="stop25" />
  </linearGradient>
  <linearGradient
     id="i"
     gradientTransform="matrix(.5 0 0 .57143 169.333 -297.38)"
     gradientUnits="userSpaceOnUse"
     x1="444.5"
     x2="444.5"
     y1="185.875"
     y2="148.833">
    <stop
       offset="0"
       stop-color="#4db6ac"
       id="stop28" />
    <stop
       offset="1"
       stop-color="#009688"
       id="stop30" />
  </linearGradient>
  <g
     id="g1240">
    <g
       id="g1227"
       transform="translate(-36,4.5)">
      <path
         d="m 67.112898,52.171413 h 1.324 v 2.649 h -1.324 z m 0,0"
         fill="url(#g)"
         id="path63"
         style="fill:url(#g-1)" />
      <path
         d="m 68.436898,52.171413 h 5.293 v -2.644 h -5.293 z m 0,0"
         fill="url(#i)"
         id="path65"
         style="fill:url(#i-9)" />
      <path
         d="m 67.112898,52.171413 h -5.29 v 2.649 h 5.29 z m 0,0"
         fill="url(#j)"
         id="path67"
         style="fill:url(#j)" />
      <path
         d="m 67.112898,52.171413 h -5.29 v -2.644 h 5.29 z m 0,0"
         fill="url(#k)"
         id="path69"
         style="fill:url(#k)" />
      <path
         d="m 68.436898,52.171413 h 5.293 v 2.649 h -5.293 z m 0,0"
         fill="url(#l)"
         id="path71"
         style="fill:url(#l)" />
    </g>
    <g
       id="g1171"
       transform="translate(-9,-33)">
      <path
         d="m 21.296827,48.75694 c 0,22.492 9.262,41.011 19.848,41.011 10.582,0 19.844,-18.52 19.844,-41.011 -6.614,1.32 -15.875,-3.97 -19.844,-7.938 -3.969,3.969 -13.23,9.258 -19.848,7.938 z m 0,0"
         fill="url(#x)"
         id="path111"
         style="fill:url(#x);fill-opacity:1" />
      <path
         id="path111-2-9"
         style="fill:#ffca28;fill-opacity:1;stroke-width:0.999997"
         d="m 60.599987,53.159459 c -1.812,4.692 -1.164037,5.89611 -2.644042,6.28711 -0.993,0.332 -2.977823,-1.983907 -4.965821,-4.628907 0.578,7.383001 3.971793,7.938032 1.987796,10.582032 -1.324002,1.324 -2.952795,-1.648075 -2.737796,-3.851074 -0.004,0.011 -3.144406,2.185898 -1.441406,7.795898 0.887,2.617 -6.810064,6.356854 -3.370406,-6.944148 -6.250112,6.142622 -1.115112,18.853007 -10.486765,7.826362 1.298239,3.518096 2.563088,5.029921 -0.01521,7.985135 -1.37305,-5.929654 -3.170522,-6.557493 -0.979675,-9.607326 -4.532,1.718 -2.85498,5.613282 -2.85498,5.613282 -1.117,0.039 -3.406453,-1.073989 -1.766453,-2.687989 -3.879,1.700001 -1.004625,6.262232 -1.004625,6.262232 0,0 -3.461833,-1.687294 -5.416189,-7.346559 3.718328,13.324912 10.767246,18.630455 16.26881,18.630455 9.687668,0 18.263717,-15.524708 19.645022,-35.405272 -0.07397,-0.171297 -0.142102,-0.337128 -0.218265,-0.511231 z"
         sodipodi:nodetypes="scccccccccccccscss" />
      <path
         id="path111-2"
         style="fill:url(#linearGradient1317);fill-opacity:1;stroke-width:0.999997"
         d="m 60.599987,53.852307 c -1.812,4.692 -1.164037,5.89611 -2.644042,6.28711 -0.993,0.332 -2.977823,-1.983907 -4.965821,-4.628907 0.578,7.383001 3.971793,7.938032 1.987796,10.582032 -1.324002,1.324 -2.952795,-1.648075 -2.737796,-3.851074 -0.004,0.011 -3.144406,2.185898 -1.441406,7.795898 0.887,2.617 -6.810064,6.356854 -3.370406,-6.944148 C 41.1782,69.23584 46.3132,81.946225 36.941547,70.91958 c 1.298239,3.518096 2.563088,5.029921 -0.01521,7.985135 -1.37305,-5.929654 -3.170522,-6.557493 -0.979675,-9.607326 -4.532,1.718 -2.85498,5.613282 -2.85498,5.613282 -1.117,0.039 -3.406453,-1.073989 -1.766453,-2.687989 -3.879,1.700001 -1.004625,6.262232 -1.004625,6.262232 0,0 -3.461833,-1.687294 -5.416189,-7.346559 3.718328,13.324912 10.767246,18.630455 16.26881,18.630455 9.687668,0 18.263717,-15.524708 19.645022,-35.405272 -0.07397,-0.171297 -0.142102,-0.337128 -0.218265,-0.511231 z"
         sodipodi:nodetypes="scccccccccccccscss" />
      <path
         d="m 41.144827,40.81494 c -3.969,3.973 -13.23,9.262 -19.848,7.942 0,0.27 0.004,0.539 0.004,0.808 6.617,1.317 15.875,-3.972 19.844,-7.941 3.969,3.969 13.226,9.258 19.84,7.941 0.004,-0.27 0.004,-0.539 0.004,-0.808 -6.614,1.32 -15.875,-3.97 -19.844,-7.942 z m 0,0"
         fill="#ffffff"
         fill-opacity="0.392"
         id="path113" />
      <path
         d="m 41.140827,40.62794 a 0.207,0.207 0 0 0 -0.129,0.058 c -1.965,1.961 -5.258,4.27 -8.875,5.914 -3.617,1.645 -7.558,2.622 -10.8,1.973 a 0.176,0.176 0 0 0 -0.157,0.04 0.185,0.185 0 0 0 -0.07,0.144 c 0,11.27 2.32,21.547 5.972,29.023 3.657,7.473 8.66,12.176 14.063,12.176 5.402,0 10.406,-4.703 14.058,-12.176 3.657,-7.476 5.973,-17.754 5.973,-29.023 a 0.182,0.182 0 0 0 -0.066,-0.145 c -0.043,-0.039 -0.102,-0.05 -0.157,-0.039 -3.246,0.649 -7.183,-0.328 -10.8,-1.973 -3.617,-1.644 -6.914,-3.953 -8.875,-5.914 a 0.183,0.183 0 0 0 -0.137,-0.058 z m 0.004,0.441 c 2.016,1.98 5.262,4.242 8.851,5.871 3.579,1.63 7.477,2.617 10.801,2.032 -0.031,11.132 -2.332,21.28 -5.93,28.644 -3.62,7.406 -8.538,11.965 -13.722,11.965 -5.184,0 -10.102,-4.559 -13.723,-11.965 -3.601,-7.363 -5.902,-17.512 -5.93,-28.644 3.32,0.585 7.22,-0.403 10.797,-2.032 3.59,-1.629 6.836,-3.89 8.856,-5.87 z m 0,0"
         fill="#212121"
         id="path115" />
      <path
         d="m 21.296827,48.75694 c 0,22.492 9.262,41.011 19.848,41.011 10.582,0 19.844,-18.52 19.844,-41.011 -0.176,22.199 -9.364,40.367 -19.844,40.367 -10.484,0 -19.668,-18.168 -19.844,-40.367 z m 0,0"
         fill-opacity="0.235"
         id="path127" />
    </g>
  </g>
  <g
     id="g1252"
     transform="translate(1.5,1.5)">
    <path
       d="m 41.021173,55.444099 h 1.324 v 2.649 h -1.324 z m 0,0"
       fill="url(#s)"
       id="path91"
       style="fill:url(#s)" />
    <path
       d="m 42.345173,55.444099 h 5.293 v -2.644 h -5.293 z m 0,0"
       fill="url(#t)"
       id="path93"
       style="fill:url(#t)" />
    <path
       d="m 41.021173,55.444099 h -5.293 v 2.649 h 5.293 z m 0,0"
       fill="url(#u)"
       id="path95"
       style="fill:url(#u)" />
    <path
       d="m 41.021173,55.444099 h -5.293 v -2.644 h 5.293 z m 0,0"
       fill="url(#v)"
       id="path97"
       style="fill:url(#v)" />
    <path
       d="m 42.345173,55.444099 h 5.293 v 2.649 h -5.293 z m 0,0"
       fill="url(#w)"
       id="path99"
       style="fill:url(#w)" />
    <path
       d="m 24.966824,19.674234 17.861565,30.932587 c 0.992079,1.71869 0.835803,4.101497 -0.308709,4.761518 -1.144559,0.660192 -3.284947,-0.394553 -4.277197,-2.113289 L 20.384994,22.318522 Z m 0,0"
       fill="url(#n)"
       stroke="#212121"
       stroke-linecap="round"
       stroke-linejoin="round"
       stroke-width="0.375018"
       id="path101"
       style="fill:url(#linearGradient1666)" />
    <path
       d="m 24.969378,19.677339 17.865425,30.937272 c 0.96885,1.679886 0.843836,3.992651 -0.230496,4.715401 L 22.758181,20.954853 Z m 0,0"
       fill="url(#o)"
       stroke="#212121"
       stroke-linecap="round"
       stroke-linejoin="round"
       stroke-width="0.375094"
       id="path103"
       style="fill:url(#linearGradient1668)" />
    <path
       d="m 14.737196,7.244883 c -0.632833,0.36722 -0.847662,1.175713 -0.484473,1.808564 L 22.853518,23.9474 c 0.367219,0.632833 1.175777,0.851522 1.808564,0.484473 0.632789,-0.363297 0.847618,-1.171791 0.484321,-1.804579 L 16.54559,7.72931 C 16.182464,7.096567 15.369985,6.881586 14.737196,7.244883 Z m 0,0"
       fill="url(#p)"
       stroke="#212121"
       stroke-linecap="round"
       stroke-linejoin="round"
       stroke-width="0.375018"
       id="path105"
       style="fill:url(#linearGradient1670)" />
    <path
       d="m 27.169879,16.873652 -10.312077,5.952584 c -0.316503,0.183587 -0.421848,0.585918 -0.242246,0.902267 l 0.664008,1.148418 c 0.17971,0.316286 0.585873,0.42577 0.902267,0.242245 l 10.312077,-5.952584 c 0.316502,-0.183587 0.425923,-0.589858 0.24229,-0.906189 l -0.660083,-1.144621 c -0.183571,-0.316223 -0.589842,-0.425644 -0.906236,-0.24212 z m 0,0"
       fill="url(#q)"
       stroke="#212121"
       stroke-linecap="round"
       stroke-linejoin="round"
       stroke-width="0.375018"
       id="path107"
       style="fill:url(#linearGradient1672)" />
    <path
       d="m 14.077067,6.100433 c -1.265576,0.730346 -1.699139,2.35132 -0.968857,3.613036 0.730517,1.265622 2.347586,1.703171 3.613145,0.968794 1.265684,-0.730409 1.699202,-2.34746 0.968856,-3.613036 -0.730517,-1.265622 -2.34746,-1.699203 -3.613144,-0.968794 z m 0,0"
       fill="url(#r)"
       stroke="#212121"
       stroke-linecap="round"
       stroke-linejoin="round"
       stroke-width="0.375018"
       id="path109"
       style="fill:url(#linearGradient1674)" />
  </g>
</svg>
